<svg xmlns="http://www.w3.org/2000/svg" viewBox="0 0 512 512" role="img" aria-labelledby="title desc">
  <title id="title">Thorns2Roses rose mark</title>
  <desc id="desc">A bold red rose with a dark green curved stem, leaves, and thorns.</desc>
  <defs>
    <linearGradient id="petal" x1="128" y1="52" x2="426" y2="300" gradientUnits="userSpaceOnUse">
      <stop offset="0" stop-color="#b91c36"/>
      <stop offset="1" stop-color="#8f1428"/>
    </linearGradient>
  </defs>

  <g fill="#2f4b37">
    <path d="M259 250 C237 316 225 380 258 472 C280 421 278 360 305 292 C293 273 276 260 259 250Z"/>
    <path d="M244 340 C191 286 142 266 78 272 C119 327 178 349 244 340Z"/>
    <path d="M300 344 C355 292 410 281 466 296 C421 348 365 365 300 344Z"/>
    <path d="M254 406 C230 410 209 421 190 440 C223 436 246 448 266 473 C272 448 268 426 254 406Z"/>
    <path d="M303 296 C320 282 339 274 359 271 C335 288 320 304 309 322Z"/>
  </g>

  <g fill="url(#petal)">
    <path d="M222 75 C255 28 334 31 371 83 C326 72 290 91 263 136 C246 108 233 88 222 75Z"/>
    <path d="M150 112 C191 79 233 91 263 136 C239 179 190 197 153 167 C139 145 139 126 150 112Z"/>
    <path d="M263 136 C307 86 386 98 421 157 C365 153 324 185 299 244 C282 205 270 169 263 136Z"/>
    <path d="M299 244 C321 185 392 176 461 235 C431 302 353 329 294 291 C287 272 289 257 299 244Z"/>
    <path d="M153 167 C192 196 236 212 294 291 C242 323 165 293 143 225 C139 199 142 180 153 167Z"/>
    <path d="M215 244 C249 263 271 283 294 291 C259 342 176 325 143 225 C166 222 191 228 215 244Z"/>
  </g>

  <g fill="none" stroke="#fff8ef" stroke-width="16" stroke-linecap="round" stroke-linejoin="round">
    <path d="M252 102 C293 79 348 97 371 139"/>
    <path d="M204 129 C237 155 260 190 267 236"/>
    <path d="M276 171 C319 144 373 153 408 194"/>
    <path d="M173 169 C202 192 229 219 246 257"/>
  </g>
</svg>
