<svg xmlns="http://www.w3.org/2000/svg" viewBox="0 0 512 512" role="img" aria-labelledby="title desc"><title id="title">Thorns2Roses rose mark</title><desc id="desc">Stylized rose logo mark.</desc><defs><linearGradient id="rose" x1="0" x2="1" y1="0" y2="1"><stop offset="0" stop-color="#b01835"/><stop offset="1" stop-color="#87192d"/></linearGradient></defs><g><path d="M252 472c42-72 8-128 42-204" fill="none" stroke="#47634f" stroke-width="24" stroke-linecap="round"/><path d="M253 382c-31-46-67-76-126-92 46-11 87-3 118 30 13 13 17 33 8 62z" fill="#47634f"/><path d="M294 339c28-43 72-63 137-57-36 37-81 59-137 57z" fill="#47634f"/><path d="M261 392l31-18-21 30z" fill="#47634f"/><path d="M273 293l32-18-20 30z" fill="#47634f"/><path d="M161 241c-31-26-39-76-5-120 0 41 22 71 67 96-18 24-41 37-62 24z" fill="url(#rose)"/><path d="M174 118c32-52 99-67 154-28-49-1-85 19-109 76-19-19-31-35-45-48z" fill="url(#rose)"/><path d="M230 168c17-60 84-83 148-35-45 7-72 35-88 87-31-17-50-32-60-52z" fill="url(#rose)"/><path d="M290 255c24-53 77-67 139-35-24 49-75 73-130 59-8-7-10-15-9-24z" fill="url(#rose)"/><path d="M223 219c26 22 49 40 70 58-31 38-94 31-117-18 11-15 28-29 47-40z" fill="url(#rose)"/><path d="M224 108c44-3 79 13 106 47" fill="none" stroke="#f6eee8" stroke-width="14" stroke-linecap="round"/><path d="M261 161c32-17 67-13 99 15" fill="none" stroke="#f6eee8" stroke-width="14" stroke-linecap="round"/><path d="M203 143c32 30 48 60 48 102" fill="none" stroke="#f6eee8" stroke-width="14" stroke-linecap="round"/></g></svg>