<svg xmlns="http://www.w3.org/2000/svg" viewBox="0 0 360 360" role="img" aria-labelledby="title desc">
  <title id="title">Thorns2Roses rose mark</title>
  <desc id="desc">A stylized red rose with a curved sage stem, thorn, and leaf inspired by the original Thorns2Roses logo.</desc>

  <g fill="none" stroke="#3f604b" stroke-linecap="round" stroke-linejoin="round">
    <path d="M172 304 C163 250 176 204 205 164 C222 140 244 121 271 101" stroke-width="11"/>
    <path d="M169 252 C135 221 110 179 96 128" stroke-width="10"/>
    <path d="M127 188 C96 174 74 149 60 112" stroke-width="9"/>
    <path d="M111 151 L78 163 L111 174" stroke-width="8"/>
  </g>

  <path d="M197 210 C225 186 267 185 304 207 C265 231 226 232 197 210Z" fill="#3f604b"/>
  <path d="M117 242 C89 255 59 250 36 231 C69 223 97 226 117 242Z" fill="#3f604b" opacity=".88"/>

  <path d="M227 95 C243 50 289 37 328 63 C303 63 280 75 263 102 C250 91 239 96 227 95Z" fill="#a52236"/>
  <path d="M190 101 C215 72 247 73 263 102 C254 139 220 154 191 132 C181 119 182 108 190 101Z" fill="#b93646"/>
  <path d="M263 102 C287 71 326 74 350 103 C339 148 301 175 261 161 C267 138 269 119 263 102Z" fill="#9c2033"/>
  <path d="M191 132 C218 154 244 145 261 161 C238 188 198 181 181 147 C183 141 186 136 191 132Z" fill="#861c2d"/>

  <path d="M235 92 C258 83 286 89 304 110" fill="none" stroke="#f5efe6" stroke-width="7" stroke-linecap="round" opacity=".86"/>
  <path d="M256 119 C276 107 300 112 318 132" fill="none" stroke="#f5efe6" stroke-width="7" stroke-linecap="round" opacity=".74"/>
  <path d="M213 105 C234 122 246 143 245 166" fill="none" stroke="#f5efe6" stroke-width="7" stroke-linecap="round" opacity=".62"/>
</svg>
